Info

Release Name: Kung Fu Panda Holiday Special
Release Date: November 24, 2010 UsA
Release Length: 21mn
Storyline:The Winter Festival is coming and Po is asked to host the great exclusive formal banquet for all the Masters of Kung Fu. However, the occasion is on the same night as his father's restaurant's own party and Mr. Ping, upset at his son's absence, will not cancel it to cook for the masters at Po's request. Burdened by his father's imposed guilt about his conflicting responsibilities, Po finds all the preparations a dispiriting struggle. However, the solution comes from where he least expects it even as the panda must decide who truly needs him more on the big night.


Cast

Jack Black     -  Po
Dustin Hoffman -  Shifu
Angelina Jolie -  Tigress
Jackie Chan    -  Monkey
Seth Rogen     -  Mantis
David Cross    -  Crane
Lucy Liu       -  Viper
James Hong     -  Mr. Ping
Jack McBrayer  -  Wo Hop
Dan Fogler     -  Zeng
Susan Fitzer   -  Shop Owner / Baby Bunny / Host Goose
Lena Golia     -  Little Bunny
Jonathan Groff -  Master Rhino
Stephen Kearin -  Father / Village Bunny
Tom Owens      -  Dream Bunny / Panicked Pig
Conrad Vernon  -  Boar
Mick Wingert   -  Goose Attendant / Pig Tailor
Frank Welker   -  Animals' vocal effects (uncredited)




Genre :  Animation | Short | Comedy
Language : English, Hindi 
Original Source: HDTV
Total Size: 388 MB
Encoder: Harshad (HD Desi Rockers)

General
Complete name                    : Kung Fu Panda Holiday Special [Exclusive] HDTVRip.720p.Dual Audio [Eng-Hindi]~Harshad.mkv
Format                           : Matroska
File size                        : 388 MiB
Duration                         : 20mn 11s
Overall bit rate                 : 2 689 Kbps
Encoded date                     : UTC 2011-06-26 07:51:10
Writing application              : mkvmerge v4.8.0 ('I Got The...') built on May 24 2011 03:12:58
Writing library                  : libebml v1.2.0 + libmatroska v1.1.0



Video
ID                               : 1
Format                           : AVC
Format/Info                      : Advanced Video Codec
Format profile                   : High@L4.1
Format settings, CABAC           : Yes
Format settings, ReFrames        : 9 frames
Muxing mode                      : Container profile=Unknown@4.1
Codec ID                         : V_MPEG4/ISO/AVC
Duration                         : 20mn 11s
Bit rate                         : 2 213 Kbps
Width                            : 1 280 pixels
Height                           : 704 pixels
Display aspect ratio             : 16:9
Frame rate                       : 25.000 fps
Original frame rate              : 23.976 fps
Color space                      : YUV
Chroma subsampling               : 4:2:0
Bit depth                        : 8 bits
Scan type                        : Progressive
Bits/(Pixel*Frame)               : 0.098
Stream size                      : 325 MiB (84%)
Writing library                  : x264 core 67 r1162M f7bfcfa



Audio #1
ID                               : 2
Format                           : MPEG Audio
Format version                   : Version 1
Format profile                   : Layer 3
Mode                             : Joint stereo
Mode extension                   : MS Stereo
Codec ID                         : A_MPEG/L3
Codec ID/Hint                    : MP3
Duration                         : 20mn 11s
Bit rate mode                    : Constant
Bit rate                         : 128 Kbps
Channel(s)                       : 2 channels
Sampling rate                    : 48.0 KHz
Stream size                      : 18.5 MiB (5%)
Title                            : Eng_by_Harshad



Audio #2
ID                               : 3
Format                           : MPEG Audio
Format version                   : Version 1
Format profile                   : Layer 3
Codec ID                         : A_MPEG/L3
Codec ID/Hint                    : MP3
Duration                         : 20mn 11s
Bit rate mode                    : Constant
Bit rate                         : 256 Kbps
Channel(s)                       : 2 channels
Sampling rate                    : 48.0 KHz
Stream size                      : 37.0 MiB (10%)
Title                            : Hindi_by_Harshad
Language                         : Hindi


Screenshots
 
http://img696.imageshack.us/img696/3734/76726457.jpg 
http://img220.imageshack.us/img220/5715/76572675.jpg 
http://img220.imageshack.us/img220/5918/34810482.jpg 
http://img9.imageshack.us/img9/8947/59849857.jpg 
http://img823.imageshack.us/img823/2481/80288315.jpg 
http://img810.imageshack.us/img810/2589/40074391.jpg